<?xml version="1.0" encoding="UTF-8" standalone="no"?>
<!-- Generator: Adobe Illustrator 16.0.3, SVG Export Plug-In . SVG Version: 6.00 Build 0)  -->

<svg
   xmlns:dc="http://purl.org/dc/elements/1.1/"
   xmlns:cc="http://creativecommons.org/ns#"
   xmlns:rdf="http://www.w3.org/1999/02/22-rdf-syntax-ns#"
   xmlns:svg="http://www.w3.org/2000/svg"
   xmlns="http://www.w3.org/2000/svg"
   xmlns:sodipodi="http://sodipodi.sourceforge.net/DTD/sodipodi-0.dtd"
   xmlns:inkscape="http://www.inkscape.org/namespaces/inkscape"
   version="1.1"
   id="Layer_1"
   x="0px"
   y="0px"
   width="595.28px"
   height="841.89px"
   viewBox="0 0 595.28 841.89"
   enable-background="new 0 0 595.28 841.89"
   xml:space="preserve"
   sodipodi:docname="cceh.svg"
   inkscape:export-filename="/home/highlander/uni/prj/rti/rti/kicad/cceh.png"
   inkscape:export-xdpi="300.00833"
   inkscape:export-ydpi="300.00833"
   inkscape:version="0.92.1 r15371"><metadata
     id="metadata69"><rdf:RDF><cc:Work
         rdf:about=""><dc:format>image/svg+xml</dc:format><dc:type
           rdf:resource="http://purl.org/dc/dcmitype/StillImage" /><dc:title></dc:title></cc:Work></rdf:RDF></metadata><defs
     id="defs67" /><sodipodi:namedview
     pagecolor="#ffffff"
     bordercolor="#666666"
     borderopacity="1"
     objecttolerance="10"
     gridtolerance="10"
     guidetolerance="10"
     inkscape:pageopacity="1"
     inkscape:pageshadow="2"
     inkscape:window-width="1920"
     inkscape:window-height="1032"
     id="namedview65"
     showgrid="false"
     showguides="false"
     inkscape:pagecheckerboard="true"
     inkscape:zoom="2.1961293"
     inkscape:cx="297.6365"
     inkscape:cy="420.78643"
     inkscape:window-x="1920"
     inkscape:window-y="0"
     inkscape:window-maximized="1"
     inkscape:current-layer="Layer_1" /><g
     id="g6"><polyline
       id="polyline2"
       points="175.271,402.353 171.474,427.826 202.172,430.543 205.518,405.755   " /><polyline
       id="polyline4"
       points="178.72,440.085 182.579,415.074 175.291,405.641 171.214,429.52   " /></g><g
     id="g12"><polyline
       id="polyline8"
       points="183.966,346.965 180.163,372.448 210.868,375.155 214.202,350.372   " /><polyline
       id="polyline10"
       points="187.259,385.356 191.108,360.341 183.825,347.608 179.748,371.493   " /></g><g
     id="g18"><polyline
       id="polyline14"
       points="169.219,460.525 165.427,485.993 196.121,488.716 199.472,463.928   " /><polyline
       id="polyline16"
       points="172.673,498.258 176.532,473.246 169.239,460.515 165.162,484.394   " /></g><polygon
     id="polygon20"
     points="363.348,550.7 191.721,534.271 220.324,324.307 393.776,339.521 " /><path
     style="stroke:#ffffff;stroke-width:5.3190999"
     inkscape:connector-curvature="0"
     id="path22"
     d="m 220.324,324.307 c 0,0 53.513,3.688 91.292,0 35.909,-3.512 77.293,-7.916 77.293,-7.916 L 357.26,527.575 c 0,0 -17.038,4.265 -65.73,7.303 -36.527,2.286 -99.377,-3.755 -99.377,-3.755 z" /><path
     style="stroke:#ffffff;stroke-width:5.3190999"
     inkscape:connector-curvature="0"
     id="path24"
     d="m 222.147,325.522 c 0,0 50.511,-0.603 87.635,-8.52 37.13,-7.911 70.604,-21.302 70.604,-21.302 l -32.071,213.086 c 0,0 -10.929,10.311 -59.222,18.788 -36.044,6.332 -95.122,4.763 -95.122,4.763 z" /><g
     id="g42"><g
       id="g28"><path
         style="fill:#ffffff"
         inkscape:connector-curvature="0"
         id="path26"
         d="m 314.551,332.077 -1.096,8.966 c -3.756,-2.561 -7.864,-3.252 -12.353,-2.067 -4.95,1.304 -9.34,4.254 -13.184,8.862 -3.859,4.586 -6.119,9.552 -6.778,14.887 -0.645,5.272 0.515,9.272 3.475,12.004 2.961,2.717 6.914,3.434 11.859,2.13 2.556,-0.675 4.778,-1.683 6.67,-3.018 1.054,-0.701 2.16,-1.559 3.324,-2.582 1.158,-1.018 2.395,-2.202 3.703,-3.553 l -1.122,9.158 c -4.456,3.558 -8.976,5.942 -13.541,7.147 -6.873,1.817 -12.451,0.852 -16.685,-2.883 -4.224,-3.776 -5.891,-9.236 -5.019,-16.373 0.79,-6.399 3.517,-12.648 8.182,-18.727 5.745,-7.453 12.57,-12.228 20.486,-14.315 4.324,-1.137 8.349,-1.017 12.079,0.364 z" /></g><g
       id="g32"><path
         style="fill:#ffffff"
         inkscape:connector-curvature="0"
         id="path30"
         d="m 325.703,405.47 20.918,-5.47 3.008,-19.666 7.319,-1.912 -7.683,50.262 -7.319,1.911 3.584,-23.468 -20.918,5.475 -3.589,23.469 -7.319,1.911 7.688,-50.256 7.319,-1.917 z" /></g><g
       id="g36"><path
         style="fill:#ffffff"
         inkscape:connector-curvature="0"
         id="path34"
         d="m 363.212,319.216 -1.241,8.966 c -3.703,-2.556 -7.813,-3.246 -12.321,-2.063 -4.96,1.304 -9.406,4.26 -13.323,8.862 -3.927,4.587 -6.27,9.553 -7.007,14.887 -0.732,5.277 0.357,9.272 3.271,11.999 2.925,2.728 6.867,3.439 11.833,2.136 2.566,-0.676 4.806,-1.679 6.722,-3.023 1.065,-0.696 2.182,-1.548 3.361,-2.576 1.174,-1.019 2.431,-2.203 3.761,-3.559 L 357,364.008 c -4.52,3.558 -9.069,5.942 -13.661,7.147 -6.903,1.813 -12.451,0.852 -16.638,-2.878 -4.156,-3.781 -5.745,-9.241 -4.753,-16.378 0.888,-6.399 3.719,-12.644 8.482,-18.726 5.859,-7.454 12.763,-12.228 20.71,-14.316 4.343,-1.137 8.364,-1.017 12.072,0.359 z" /></g><g
       id="g40"><path
         style="fill:#ffffff;stroke:#ffffff;stroke-width:5.3190999"
         inkscape:connector-curvature="0"
         id="path38"
         d="m 300.381,459.097 2.441,1.662 c -7.345,10.327 -14.243,18.217 -20.694,23.65 -6.452,5.438 -13.116,9.064 -20.01,10.883 -8.201,2.16 -14.44,1.044 -18.699,-3.366 -4.255,-4.405 -5.813,-11.313 -4.66,-20.731 1.174,-9.521 4.769,-19.806 10.779,-30.865 6.015,-11.048 13.037,-20.73 21.068,-29.047 8.025,-8.306 15.588,-13.396 22.679,-15.267 4.15,-1.096 7.418,-0.728 9.786,1.106 2.369,1.828 3.314,4.753 2.815,8.773 -0.997,8.15 -6.249,17.412 -15.76,27.806 -9.517,10.395 -21.962,20.378 -37.348,29.962 -0.208,0.878 -0.38,1.844 -0.51,2.893 -0.894,7.304 0.302,12.747 3.585,16.337 3.282,3.589 7.963,4.581 14.04,2.977 4.758,-1.257 9.563,-4.031 14.399,-8.327 4.836,-4.296 10.203,-10.446 16.089,-18.446 z m -47.14,0.758 c 11.568,-7.963 20.669,-15.838 27.307,-23.63 4.473,-5.277 8.224,-10.664 11.252,-16.175 3.028,-5.501 4.784,-10.218 5.267,-14.129 0.613,-4.972 -1.262,-6.883 -5.62,-5.74 -6.587,1.74 -13.905,8.914 -21.978,21.536 -8.073,12.622 -13.475,25.334 -16.228,38.138 z" /></g></g><g
     id="g48"><polyline
       id="polyline44"
       points="418.936,395.854 422.79,370.838 395.891,368.813 392.556,393.61   " /><polyline
       id="polyline46"
       points="426.263,408.771 430.111,383.754 422.829,371.022 418.751,394.906   " /></g><g
     id="g54"><polyline
       id="polyline50"
       points="411.632,453.056 415.481,428.045 388.587,426.019 385.247,450.817   " /><polyline
       id="polyline52"
       points="419.042,466.322 422.894,441.306 415.608,428.574 411.531,452.458   " /></g><g
     id="g60"><polyline
       id="polyline56"
       points="402.877,510.293 406.664,484.819 380.068,482.617 376.729,507.415   " /><polyline
       id="polyline58"
       points="410.066,522.816 413.918,497.801 406.633,485.069 402.555,508.953   " /></g></svg>