999
dxfrw 0.6.3
  0
SECTION
  2
HEADER
  9
$ACADVER
  1
AC1021
  9
$DWGCODEPAGE
  3
ANSI_1252
  9
$INSBASE
 10
0
 20
0
 30
0
  9
$EXTMIN
 10
-62.5
 20
-232
 30
0
  9
$EXTMAX
 10
62.5
 20
32
 30
0
  9
$LIMMIN
 10
0
 20
0
  9
$LIMMAX
 10
420
 20
297
  9
$ORTHOMODE
 70
    0
  9
$REGENMODE
 70
    1
  9
$FILLMODE
 70
    1
  9
$QTEXTMODE
 70
    0
  9
$MIRRTEXT
 70
    0
  9
$LTSCALE
 40
1
  9
$ATTMODE
 70
    0
  9
$TEXTSIZE
 40
2.5
  9
$TRACEWID
 40
15.68
  9
$TEXTSTYLE
  7
STANDARD
  9
$CLAYER
  8
inside
  9
$CELTYPE
  6
BYLAYER
  9
$CECOLOR
 62
  256
  9
$CELTSCALE
 40
1
  9
$DISPSILH
 70
    0
  9
$DIMSCALE
 40
2.5
  9
$DIMASZ
 40
1
  9
$DIMEXO
 40
0.625
  9
$DIMDLI
 40
3.75
  9
$DIMRND
 40
0
  9
$DIMDLE
 40
0
  9
$DIMEXE
 40
1.25
  9
$DIMTP
 40
0
  9
$DIMTM
 40
0
  9
$DIMTXT
 40
1
  9
$DIMCEN
 40
2.5
  9
$DIMTSZ
 40
0
  9
$DIMTOL
 70
    0
  9
$DIMLIM
 70
    0
  9
$DIMTIH
 70
    0
  9
$DIMTOH
 70
    0
  9
$DIMSE1
 70
    0
  9
$DIMSE2
 70
    0
  9
$DIMTAD
 70
    1
  9
$DIMZIN
 70
    8
  9
$DIMBLK
  1

  9
$DIMASO
 70
    1
  9
$DIMSHO
 70
    1
  9
$DIMPOST
  1

  9
$DIMAPOST
  1

  9
$DIMALT
 70
    0
  9
$DIMALTD
 70
    3
  9
$DIMALTF
 40
0.03937
  9
$DIMLFAC
 40
1
  9
$DIMTOFL
 70
    1
  9
$DIMTVP
 40
0
  9
$DIMTIX
 70
    0
  9
$DIMSOXD
 70
    0
  9
$DIMSAH
 70
    0
  9
$DIMBLK1
  1

  9
$DIMBLK2
  1

  9
$DIMSTYLE
  2
STANDARD
  9
$DIMCLRD
 70
    0
  9
$DIMCLRE
 70
    0
  9
$DIMCLRT
 70
    0
  9
$DIMTFAC
 40
1
  9
$DIMGAP
 40
0.625
  9
$DIMJUST
 70
    0
  9
$DIMSD1
 70
    0
  9
$DIMSD2
 70
    0
  9
$DIMTOLJ
 70
    0
  9
$DIMTZIN
 70
    8
  9
$DIMALTZ
 70
    0
  9
$DIMALTTZ
 70
    0
  9
$DIMUPT
 70
    0
  9
$DIMDEC
 70
    4
  9
$DIMTDEC
 70
    2
  9
$DIMALTU
 70
    2
  9
$DIMALTTD
 70
    3
  9
$DIMTXSTY
  7
standard
  9
$DIMAUNIT
 70
    0
  9
$DIMADEC
 70
    2
  9
$DIMALTRND
 40
0
  9
$DIMAZIN
 70
    0
  9
$DIMDSEP
 70
   44
  9
$DIMATFIT
 70
    3
  9
$DIMFRAC
 70
    0
  9
$DIMLDRBLK
  1
STANDARD
  9
$DIMLUNIT
 70
    2
  9
$DIMLWD
 70
   -2
  9
$DIMLWE
 70
   -2
  9
$DIMTMOVE
 70
    0
  9
$DIMFXL
 40
1
  9
$DIMFXLON
 70
    0
  9
$DIMJOGANG
 40
0.7854
  9
$DIMTFILL
 70
    0
  9
$DIMTFILLCLR
 70
    0
  9
$DIMARCSYM
 70
    0
  9
$DIMLTYPE
  6

  9
$DIMLTEX1
  6

  9
$DIMLTEX2
  6

  9
$LUNITS
 70
    2
  9
$LUPREC
 70
    4
  9
$SKETCHINC
 40
1
  9
$FILLETRAD
 40
0
  9
$AUNITS
 70
    0
  9
$AUPREC
 70
    2
  9
$MENU
  1
.
  9
$ELEVATION
 40
0
  9
$PELEVATION
 40
0
  9
$THICKNESS
 40
0
  9
$LIMCHECK
 70
    0
  9
$CHAMFERA
 40
0
  9
$CHAMFERB
 40
0
  9
$CHAMFERC
 40
0
  9
$CHAMFERD
 40
0
  9
$SKPOLY
 70
    0
  9
$USRTIMER
 70
    1
  9
$ANGBASE
 50
0
  9
$ANGDIR
 70
    0
  9
$PDMODE
 70
   34
  9
$PDSIZE
 40
0
  9
$PLINEWID
 40
0
  9
$SPLFRAME
 70
    0
  9
$SPLINETYPE
 70
    2
  9
$SPLINESEGS
 70
    8
  9
$HANDSEED
  5
20000
  9
$SURFTAB1
 70
    6
  9
$SURFTAB2
 70
    6
  9
$SURFTYPE
 70
    6
  9
$SURFU
 70
    6
  9
$SURFV
 70
    6
  9
$UCSBASE
  2

  9
$UCSNAME
  2

  9
$UCSORG
 10
0
 20
0
 30
0
  9
$UCSXDIR
 10
1
 20
0
 30
0
  9
$UCSYDIR
 10
0
 20
1
 30
0
  9
$UCSORTHOREF
  2

  9
$UCSORTHOVIEW
 70
    0
  9
$UCSORGTOP
 10
0
 20
0
 30
0
  9
$UCSORGBOTTOM
 10
0
 20
0
 30
0
  9
$UCSORGLEFT
 10
0
 20
0
 30
0
  9
$UCSORGRIGHT
 10
0
 20
0
 30
0
  9
$UCSORGFRONT
 10
0
 20
0
 30
0
  9
$UCSORGBACK
 10
0
 20
0
 30
0
  9
$PUCSBASE
  2

  9
$PUCSNAME
  2

  9
$PUCSORG
 10
0
 20
0
 30
0
  9
$PUCSXDIR
 10
1
 20
0
 30
0
  9
$PUCSYDIR
 10
0
 20
1
 30
0
  9
$PUCSORTHOREF
  2

  9
$PUCSORTHOVIEW
 70
    0
  9
$PUCSORGTOP
 10
0
 20
0
 30
0
  9
$PUCSORGBOTTOM
 10
0
 20
0
 30
0
  9
$PUCSORGLEFT
 10
0
 20
0
 30
0
  9
$PUCSORGRIGHT
 10
0
 20
0
 30
0
  9
$PUCSORGFRONT
 10
0
 20
0
 30
0
  9
$PUCSORGBACK
 10
0
 20
0
 30
0
  9
$USERI1
 70
    0
  9
$USERI2
 70
    0
  9
$USERI3
 70
    0
  9
$USERI4
 70
    0
  9
$USERI5
 70
    0
  9
$USERR1
 40
0
  9
$USERR2
 40
0
  9
$USERR3
 40
0
  9
$USERR4
 40
0
  9
$USERR5
 40
0
  9
$WORLDVIEW
 70
    1
  9
$SHADEDGE
 70
    3
  9
$SHADEDIF
 70
   70
  9
$TILEMODE
 70
    1
  9
$MAXACTVP
 70
   64
  9
$PINSBASE
 10
0
 20
0
 30
0
  9
$PLIMCHECK
 70
    0
  9
$PEXTMIN
 10
0
 20
0
 30
0
  9
$PEXTMAX
 10
0
 20
0
 30
0
  9
$GRIDMODE
 70
    1
  9
$SNAPSTYLE
 70
    0
  9
$GRIDUNIT
 10
0.1
 20
0.1
  9
$PLIMMIN
 10
0
 20
0
  9
$PLIMMAX
 10
297
 20
210
  9
$UNITMODE
 70
    0
  9
$VISRETAIN
 70
    1
  9
$PLINEGEN
 70
    0
  9
$PSLTSCALE
 70
    1
  9
$TREEDEPTH
 70
 3020
  9
$CMLSTYLE
  2
Standard
  9
$CMLJUST
 70
    0
  9
$CMLSCALE
 40
20
  9
$PROXYGRAPHICS
 70
    1
  9
$MEASUREMENT
 70
    1
  9
$CELWEIGHT
370
   -1
  9
$ENDCAPS
280
    0
  9
$JOINSTYLE
280
    0
  9
$LWDISPLAY
290
    0
  9
$INSUNITS
 70
    0
  9
$HYPERLINKBASE
  1

  9
$STYLESHEET
  1

  9
$XEDIT
290
    1
  9
$CEPSNTYPE
380
    0
  9
$PSTYLEMODE
290
    1
  9
$EXTNAMES
290
    1
  9
$PSVPSCALE
 40
0
  9
$OLESTARTUP
290
    0
  9
$SORTENTS
280
  127
  9
$INDEXCTL
280
    0
  9
$HIDETEXT
280
    1
  9
$XCLIPFRAME
290
    0
  9
$HALOGAP
280
    0
  9
$OBSCOLOR
 70
  257
  9
$OBSLTYPE
280
    0
  9
$INTERSECTIONDISPLAY
280
    0
  9
$INTERSECTIONCOLOR
 70
  257
  9
$DIMASSOC
280
    1
  9
$PROJECTNAME
  1

  9
$CAMERADISPLAY
290
    0
  9
$LENSLENGTH
 40
50
  9
$CAMERAHEIGHT
 40
0
  9
$STEPSPERSEC
 40
2
  9
$STEPSIZE
 40
50
  9
$3DDWFPREC
 40
2
  9
$PSOLWIDTH
 40
5
  9
$PSOLHEIGHT
 40
80
  9
$LOFTANG1
 40
1.570796326794897
  9
$LOFTANG2
 40
1.570796326794897
  9
$LOFTMAG1
 40
0
  9
$LOFTMAG2
 40
0
  9
$LOFTPARAM
 70
    7
  9
$LOFTNORMALS
280
    1
  9
$LATITUDE
 40
1
  9
$LONGITUDE
 40
1
  9
$NORTHDIRECTION
 40
0
  9
$TIMEZONE
 70
-8000
  9
$LIGHTGLYPHDISPLAY
280
    1
  9
$TILEMODELIGHTSYNCH
280
    1
  9
$SOLIDHIST
280
    1
  9
$SHOWHIST
280
    1
  9
$DWFFRAME
280
    2
  9
$DGNFRAME
280
    0
  9
$REALWORLDSCALE
290
    1
  9
$INTERFERECOLOR
 62
    1
  9
$CSHADOW
280
    0
  9
$SHADOWPLANELOCATION
 40
0
  0
ENDSEC
  0
SECTION
  2
CLASSES
  0
ENDSEC
  0
SECTION
  2
TABLES
  0
TABLE
  2
VPORT
  5
8
330
0
100
AcDbSymbolTable
 70
    1
  0
VPORT
  5
31
330
2
100
AcDbSymbolTableRecord
100
AcDbViewportTableRecord
  2
*ACTIVE
 70
    0
 10
0
 20
0
 11
1
 21
1
 12
29.63534897452287
 22
-20.40662285091306
 13
0
 23
0
 14
10
 24
10
 15
0.1
 25
0.1
 16
0
 26
0
 36
1
 17
0
 27
0
 37
0
 40
74.70494681094489
 41
1.625133120340788
 42
50
 43
0
 44
0
 50
0
 51
0
 71
    0
 72
  100
 73
    1
 74
    3
 75
    0
 76
    1
 77
    0
 78
    0
281
    0
 65
    1
110
0
120
0
130
0
111
1
121
0
131
0
112
0
122
1
132
0
 79
    0
146
0
348
10020
 60
    3
 61
    5
292
1
282
    1
141
0
142
0
 63
  250
421
3358443
  0
ENDTAB
  0
TABLE
  2
LTYPE
  5
5
330
0
100
AcDbSymbolTable
 70
    4
  0
LTYPE
  5
14
330
5
100
AcDbSymbolTableRecord
100
AcDbLinetypeTableRecord
  2
ByBlock
 70
    0
  3

 72
   65
 73
    0
 40
0
  0
LTYPE
  5
15
330
5
100
AcDbSymbolTableRecord
100
AcDbLinetypeTableRecord
  2
ByLayer
 70
    0
  3

 72
   65
 73
    0
 40
0
  0
LTYPE
  5
16
330
5
100
AcDbSymbolTableRecord
100
AcDbLinetypeTableRecord
  2
Continuous
 70
    0
  3
Solid line
 72
   65
 73
    0
 40
0
  0
LTYPE
  5
32
330
5
100
AcDbSymbolTableRecord
100
AcDbLinetypeTableRecord
  2
DOT
 70
    0
  3
Dot . . . . . . . . . . . . . . . . . . . . . .
 72
   65
 73
    2
 40
6.35
 49
0
 74
    0
 49
-6.35
 74
    0
  0
LTYPE
  5
33
330
5
100
AcDbSymbolTableRecord
100
AcDbLinetypeTableRecord
  2
DOTTINY
 70
    0
  3
Dot (.15x) .....................................
 72
   65
 73
    2
 40
0.9525
 49
0
 74
    0
 49
-0.9525
 74
    0
  0
LTYPE
  5
34
330
5
100
AcDbSymbolTableRecord
100
AcDbLinetypeTableRecord
  2
DOT2
 70
    0
  3
Dot (.5x) .....................................
 72
   65
 73
    2
 40
3.175
 49
0
 74
    0
 49
-3.175
 74
    0
  0
LTYPE
  5
35
330
5
100
AcDbSymbolTableRecord
100
AcDbLinetypeTableRecord
  2
DOTX2
 70
    0
  3
Dot (2x) .  .  .  .  .  .  .  .  .  .  .  .  .
 72
   65
 73
    2
 40
12.7
 49
0
 74
    0
 49
-12.7
 74
    0
  0
LTYPE
  5
36
330
5
100
AcDbSymbolTableRecord
100
AcDbLinetypeTableRecord
  2
DASHED
 70
    0
  3
Dashed _ _ _ _ _ _ _ _ _ _ _ _ _ _ _ _ _
 72
   65
 73
    2
 40
19.05
 49
12.7
 74
    0
 49
-6.35
 74
    0
  0
LTYPE
  5
37
330
5
100
AcDbSymbolTableRecord
100
AcDbLinetypeTableRecord
  2
DASHEDTINY
 70
    0
  3
Dashed (.15x) _ _ _ _ _ _ _ _ _ _ _ _ _ _ _ _ _
 72
   65
 73
    2
 40
2.8575
 49
1.905
 74
    0
 49
-0.9525
 74
    0
  0
LTYPE
  5
38
330
5
100
AcDbSymbolTableRecord
100
AcDbLinetypeTableRecord
  2
DASHED2
 70
    0
  3
Dashed (.5x) _ _ _ _ _ _ _ _ _ _ _ _ _ _ _ _ _
 72
   65
 73
    2
 40
9.524999999999999
 49
6.35
 74
    0
 49
-3.175
 74
    0
  0
LTYPE
  5
39
330
5
100
AcDbSymbolTableRecord
100
AcDbLinetypeTableRecord
  2
DASHEDX2
 70
    0
  3
Dashed (2x) ____  ____  ____  ____  ____  ___
 72
   65
 73
    2
 40
38.09999999999999
 49
25.4
 74
    0
 49
-12.7
 74
    0
  0
LTYPE
  5
3A
330
5
100
AcDbSymbolTableRecord
100
AcDbLinetypeTableRecord
  2
DASHDOT
 70
    0
  3
Dash dot __ . __ . __ . __ . __ . __ . __ . __
 72
   65
 73
    4
 40
25.4
 49
12.7
 74
    0
 49
-6.35
 74
    0
 49
0
 74
    0
 49
-6.35
 74
    0
  0
LTYPE
  5
3B
330
5
100
AcDbSymbolTableRecord
100
AcDbLinetypeTableRecord
  2
DASHDOTTINY
 70
    0
  3
Dash dot (.15x) _._._._._._._._._._._._._._._.
 72
   65
 73
    4
 40
3.81
 49
1.905
 74
    0
 49
-0.9525
 74
    0
 49
0
 74
    0
 49
-0.9525
 74
    0
  0
LTYPE
  5
3C
330
5
100
AcDbSymbolTableRecord
100
AcDbLinetypeTableRecord
  2
DASHDOT2
 70
    0
  3
Dash dot (.5x) _._._._._._._._._._._._._._._.
 72
   65
 73
    4
 40
12.7
 49
6.35
 74
    0
 49
-3.175
 74
    0
 49
0
 74
    0
 49
-3.175
 74
    0
  0
LTYPE
  5
3D
330
5
100
AcDbSymbolTableRecord
100
AcDbLinetypeTableRecord
  2
DASHDOTX2
 70
    0
  3
Dash dot (2x) ____  .  ____  .  ____  .  ___
 72
   65
 73
    4
 40
50.8
 49
25.4
 74
    0
 49
-12.7
 74
    0
 49
0
 74
    0
 49
-12.7
 74
    0
  0
LTYPE
  5
3E
330
5
100
AcDbSymbolTableRecord
100
AcDbLinetypeTableRecord
  2
DIVIDE
 70
    0
  3
Divide ____ . . ____ . . ____ . . ____ . . ____
 72
   65
 73
    6
 40
31.75
 49
12.7
 74
    0
 49
-6.35
 74
    0
 49
0
 74
    0
 49
-6.35
 74
    0
 49
0
 74
    0
 49
-6.35
 74
    0
  0
LTYPE
  5
3F
330
5
100
AcDbSymbolTableRecord
100
AcDbLinetypeTableRecord
  2
DIVIDETINY
 70
    0
  3
Divide (.15x) __..__..__..__..__..__..__..__.._
 72
   65
 73
    6
 40
4.7625
 49
1.905
 74
    0
 49
-0.9525
 74
    0
 49
0
 74
    0
 49
-0.9525
 74
    0
 49
0
 74
    0
 49
-0.9525
 74
    0
  0
LTYPE
  5
40
330
5
100
AcDbSymbolTableRecord
100
AcDbLinetypeTableRecord
  2
DIVIDE2
 70
    0
  3
Divide (.5x) __..__..__..__..__..__..__..__.._
 72
   65
 73
    6
 40
15.875
 49
6.35
 74
    0
 49
-3.175
 74
    0
 49
0
 74
    0
 49
-3.175
 74
    0
 49
0
 74
    0
 49
-3.175
 74
    0
  0
LTYPE
  5
41
330
5
100
AcDbSymbolTableRecord
100
AcDbLinetypeTableRecord
  2
DIVIDEX2
 70
    0
  3
Divide (2x) ________  .  .  ________  .  .  _
 72
   65
 73
    6
 40
63.5
 49
25.4
 74
    0
 49
-12.7
 74
    0
 49
0
 74
    0
 49
-12.7
 74
    0
 49
0
 74
    0
 49
-12.7
 74
    0
  0
LTYPE
  5
42
330
5
100
AcDbSymbolTableRecord
100
AcDbLinetypeTableRecord
  2
BORDER
 70
    0
  3
Border __ __ . __ __ . __ __ . __ __ . __ __ .
 72
   65
 73
    6
 40
44.45
 49
12.7
 74
    0
 49
-6.35
 74
    0
 49
12.7
 74
    0
 49
-6.35
 74
    0
 49
0
 74
    0
 49
-6.35
 74
    0
  0
LTYPE
  5
43
330
5
100
AcDbSymbolTableRecord
100
AcDbLinetypeTableRecord
  2
BORDERTINY
 70
    0
  3
Border (.15x) __.__.__.__.__.__.__.__.__.__.__.
 72
   65
 73
    6
 40
6.6675
 49
1.905
 74
    0
 49
-0.9525
 74
    0
 49
1.905
 74
    0
 49
-0.9525
 74
    0
 49
0
 74
    0
 49
-0.9525
 74
    0
  0
LTYPE
  5
44
330
5
100
AcDbSymbolTableRecord
100
AcDbLinetypeTableRecord
  2
BORDER2
 70
    0
  3
Border (.5x) __.__.__.__.__.__.__.__.__.__.__.
 72
   65
 73
    6
 40
22.225
 49
6.35
 74
    0
 49
-3.175
 74
    0
 49
6.35
 74
    0
 49
-3.175
 74
    0
 49
0
 74
    0
 49
-3.175
 74
    0
  0
LTYPE
  5
45
330
5
100
AcDbSymbolTableRecord
100
AcDbLinetypeTableRecord
  2
BORDERX2
 70
    0
  3
Border (2x) ____  ____  .  ____  ____  .  ___
 72
   65
 73
    6
 40
88.89999999999999
 49
25.4
 74
    0
 49
-12.7
 74
    0
 49
25.4
 74
    0
 49
-12.7
 74
    0
 49
0
 74
    0
 49
-12.7
 74
    0
  0
LTYPE
  5
46
330
5
100
AcDbSymbolTableRecord
100
AcDbLinetypeTableRecord
  2
CENTER
 70
    0
  3
Center ____ _ ____ _ ____ _ ____ _ ____ _ ____
 72
   65
 73
    4
 40
50.8
 49
31.75
 74
    0
 49
-6.35
 74
    0
 49
6.35
 74
    0
 49
-6.35
 74
    0
  0
LTYPE
  5
47
330
5
100
AcDbSymbolTableRecord
100
AcDbLinetypeTableRecord
  2
CENTERTINY
 70
    0
  3
Center (.15x) ___ _ ___ _ ___ _ ___ _ ___ _ ___
 72
   65
 73
    4
 40
7.619999999999999
 49
4.7625
 74
    0
 49
-0.9525
 74
    0
 49
0.9525
 74
    0
 49
-0.9525
 74
    0
  0
LTYPE
  5
48
330
5
100
AcDbSymbolTableRecord
100
AcDbLinetypeTableRecord
  2
CENTER2
 70
    0
  3
Center (.5x) ___ _ ___ _ ___ _ ___ _ ___ _ ___
 72
   65
 73
    4
 40
28.575
 49
19.05
 74
    0
 49
-3.175
 74
    0
 49
3.175
 74
    0
 49
-3.175
 74
    0
  0
LTYPE
  5
49
330
5
100
AcDbSymbolTableRecord
100
AcDbLinetypeTableRecord
  2
CENTERX2
 70
    0
  3
Center (2x) ________  __  ________  __  _____
 72
   65
 73
    4
 40
101.6
 49
63.5
 74
    0
 49
-12.7
 74
    0
 49
12.7
 74
    0
 49
-12.7
 74
    0
  0
ENDTAB
  0
TABLE
  2
LAYER
  5
2
330
0
100
AcDbSymbolTable
 70
    1
  0
LAYER
  5
10
330
2
100
AcDbSymbolTableRecord
100
AcDbLayerTableRecord
  2
0
 70
    0
 62
    7
  6
CONTINUOUS
370
   50
390
F
  0
LAYER
  5
4A
330
2
100
AcDbSymbolTableRecord
100
AcDbLayerTableRecord
  2
help
 70
    0
 62
    2
  6
DASHDOTTINY
370
   13
390
F
  0
LAYER
  5
4B
330
2
100
AcDbSymbolTableRecord
100
AcDbLayerTableRecord
  2
inside
 70
    0
 62
    1
  6
CONTINUOUS
290
0
370
   13
390
F
  0
LAYER
  5
4C
330
2
100
AcDbSymbolTableRecord
100
AcDbLayerTableRecord
  2
outside
 70
    0
 62
    3
  6
CONTINUOUS
370
   25
390
F
  0
LAYER
  5
4D
330
2
100
AcDbSymbolTableRecord
100
AcDbLayerTableRecord
  2
punch
 70
    0
 62
    7
  6
CONTINUOUS
370
   13
390
F
  0
ENDTAB
  0
TABLE
  2
STYLE
  5
3
330
0
100
AcDbSymbolTable
 70
    3
  0
STYLE
  5
4E
330
2
100
AcDbSymbolTableRecord
100
AcDbTextStyleTableRecord
  2
opengosttypea-regular
 70
    0
 40
0
 41
1
 50
0
 71
    0
 42
1
  3
opengosttypea-regular
  4

  0
STYLE
  5
4F
330
2
100
AcDbSymbolTableRecord
100
AcDbTextStyleTableRecord
  2
Standard
 70
    0
 40
0
 41
1
 50
0
 71
    0
 42
1
  3
txt
  4

  0
ENDTAB
  0
TABLE
  2
VIEW
  5
6
330
0
100
AcDbSymbolTable
 70
    0
  0
ENDTAB
  0
TABLE
  2
UCS
  5
7
330
0
100
AcDbSymbolTable
 70
    0
  0
ENDTAB
  0
TABLE
  2
APPID
  5
9
330
0
100
AcDbSymbolTable
 70
    1
  0
APPID
  5
12
330
9
100
AcDbSymbolTableRecord
100
AcDbRegAppTableRecord
  2
ACAD
 70
    0
  0
APPID
  5
50
330
9
100
AcDbSymbolTableRecord
100
AcDbRegAppTableRecord
  2
LibreCad
 70
    0
  0
ENDTAB
  0
TABLE
  2
DIMSTYLE
  5
A
330
0
100
AcDbSymbolTable
 70
    1
100
AcDbDimStyleTable
 71
    1
  0
DIMSTYLE
105
51
330
A
100
AcDbSymbolTableRecord
100
AcDbDimStyleTableRecord
  2
Standard
 70
    0
 40
2.5
 41
1
 42
0.625
 43
0.38
 44
1.25
 45
0
 46
0
 47
0
 48
0
 49
1
140
1
141
0.09
142
0
143
25.4
144
1
145
0
146
1
147
0.625
148
0
 71
    0
 72
    0
 73
    0
 74
    1
 75
    0
 76
    0
 77
    0
 78
    8
 79
    0
170
    0
171
    2
172
    0
173
    0
174
    0
175
    0
176
    0
177
    0
178
    0
179
    2
271
    4
272
    4
273
    2
274
    2
275
    0
276
    0
277
    2
278
   44
279
    0
280
    0
281
    0
282
    0
283
    1
284
    0
285
    0
286
    0
288
    0
289
    3
340
standard
341

371
   -2
372
   -2
  0
ENDTAB
  0
TABLE
  2
BLOCK_RECORD
  5
1
330
0
100
AcDbSymbolTable
 70
    2
  0
BLOCK_RECORD
  5
1F
330
1
100
AcDbSymbolTableRecord
100
AcDbBlockTableRecord
  2
*Model_Space
 70
    0
280
    1
281
    0
  0
BLOCK_RECORD
  5
1E
330
1
100
AcDbSymbolTableRecord
100
AcDbBlockTableRecord
  2
*Paper_Space
 70
    0
280
    1
281
    0
  0
BLOCK_RECORD
  5
52
330
1
100
AcDbSymbolTableRecord
100
AcDbBlockTableRecord
  2
*D3
 70
    0
280
    1
281
    0
  0
BLOCK_RECORD
  5
55
330
1
100
AcDbSymbolTableRecord
100
AcDbBlockTableRecord
  2
*D1
 70
    0
280
    1
281
    0
  0
BLOCK_RECORD
  5
58
330
1
100
AcDbSymbolTableRecord
100
AcDbBlockTableRecord
  2
*D5
 70
    0
280
    1
281
    0
  0
BLOCK_RECORD
  5
5B
330
1
100
AcDbSymbolTableRecord
100
AcDbBlockTableRecord
  2
*D2
 70
    0
280
    1
281
    0
  0
BLOCK_RECORD
  5
5E
330
1
100
AcDbSymbolTableRecord
100
AcDbBlockTableRecord
  2
*D4
 70
    0
280
    1
281
    0
  0
BLOCK_RECORD
  5
61
330
1
100
AcDbSymbolTableRecord
100
AcDbBlockTableRecord
  2
*D6
 70
    0
280
    1
281
    0
  0
BLOCK_RECORD
  5
64
330
1
100
AcDbSymbolTableRecord
100
AcDbBlockTableRecord
  2
Fischer KO H 2
 70
    0
280
    1
281
    0
  0
BLOCK_RECORD
  5
67
330
1
100
AcDbSymbolTableRecord
100
AcDbBlockTableRecord
  2
KO H 2 + KO H 2 front
 70
    0
280
    1
281
    0
  0
BLOCK_RECORD
  5
6A
330
1
100
AcDbSymbolTableRecord
100
AcDbBlockTableRecord
  2
RAFI 106 front
 70
    0
280
    1
281
    0
  0
BLOCK_RECORD
  5
6D
330
1
100
AcDbSymbolTableRecord
100
AcDbBlockTableRecord
  2
Neutrik NRJ6HF front
 70
    0
280
    1
281
    0
  0
BLOCK_RECORD
  5
70
330
1
100
AcDbSymbolTableRecord
100
AcDbBlockTableRecord
  2
HEBL 21 front
 70
    0
280
    1
281
    0
  0
BLOCK_RECORD
  5
73
330
1
100
AcDbSymbolTableRecord
100
AcDbBlockTableRecord
  2
cross
 70
    0
280
    1
281
    0
  0
BLOCK_RECORD
  5
76
330
1
100
AcDbSymbolTableRecord
100
AcDbBlockTableRecord
  2
MEBP 8-8G front
 70
    0
280
    1
281
    0
  0
BLOCK_RECORD
  5
79
330
1
100
AcDbSymbolTableRecord
100
AcDbBlockTableRecord
  2
case front
 70
    0
280
    1
281
    0
  0
BLOCK_RECORD
  5
7C
330
1
100
AcDbSymbolTableRecord
100
AcDbBlockTableRecord
  2
Lumberg KFV front
 70
    0
280
    1
281
    0
  0
ENDTAB
  0
ENDSEC
  0
SECTION
  2
BLOCKS
  0
BLOCK
  5
20
330
1F
100
AcDbEntity
  8
0
100
AcDbBlockBegin
  2
*Model_Space
 70
    0
 10
0
 20
0
 30
0
  3
*Model_Space
  1

  0
ENDBLK
  5
21
330
1F
100
AcDbEntity
  8
0
100
AcDbBlockEnd
  0
BLOCK
  5
1C
330
1B
100
AcDbEntity
  8
0
100
AcDbBlockBegin
  2
*Paper_Space
 70
    0
 10
0
 20
0
 30
0
  3
*Paper_Space
  1

  0
ENDBLK
  5
1D
330
1F
100
AcDbEntity
  8
0
100
AcDbBlockEnd
  0
BLOCK
  5
53
330
52
100
AcDbEntity
  8
0
100
AcDbBlockBegin
  2
*D3
 70
    1
 10
0
 20
0
  3
*D3
  1

  0
LINE
  5
7F
100
AcDbEntity
  8
punch
  6
ByBlock
 62
    0
370
   -2
100
AcDbLine
 10
50
 20
-120
 11
-3
 21
-120
  0
SOLID
  5
80
100
AcDbEntity
  8
punch
  6
ByBlock
 62
    0
370
   -2
100
AcDbTrace
 10
50
 20
-120
 30
0
 11
47.5
 21
-120.4162846577728
 31
0
 12
47.5
 22
-119.5837153422272
 32
0
 13
47.5
 23
-119.5837153422272
 33
0
  0
SOLID
  5
81
100
AcDbEntity
  8
punch
  6
ByBlock
 62
    0
370
   -2
100
AcDbTrace
 10
-3
 20
-120
 30
0
 11
-0.5
 21
-119.5837153422272
 31
0
 12
-0.5
 22
-120.4162846577728
 32
0
 13
-0.5
 23
-120.4162846577728
 33
0
  0
MTEXT
  5
82
100
AcDbEntity
  8
punch
  6
CONTINUOUS
 62
    0
370
   -2
100
AcDbMText
 10
23.5
 20
-117.1875
 30
0
 40
2.5
 41
3.055555555555866
 71
    5
 72
    1
  1
53
  7
standard
210
0
220
0
230
1
 50
360
 73
    2
 44
1
  0
LINE
  5
83
100
AcDbEntity
  8
punch
  6
ByBlock
 62
    0
370
   -2
100
AcDbLine
 10
50
 20
-92.5625
 11
50
 21
-123.125
  0
LINE
  5
84
100
AcDbEntity
  8
punch
  6
ByBlock
 62
    0
370
   -2
100
AcDbLine
 10
-3
 20
-92.5625
 11
-3
 21
-123.125
  0
ENDBLK
  5
54
330
52
100
AcDbEntity
  8
0
100
AcDbBlockEnd
  0
BLOCK
  5
56
330
55
100
AcDbEntity
  8
0
100
AcDbBlockBegin
  2
*D1
 70
    1
 10
0
 20
0
  3
*D1
  1

  0
LINE
  5
85
100
AcDbEntity
  8
punch
  6
ByBlock
 62
    0
370
   -2
100
AcDbLine
 10
50
 20
-110
 11
35
 21
-110
  0
SOLID
  5
86
100
AcDbEntity
  8
punch
  6
ByBlock
 62
    0
370
   -2
100
AcDbTrace
 10
50
 20
-110
 30
0
 11
47.5
 21
-110.4162846577728
 31
0
 12
47.5
 22
-109.5837153422272
 32
0
 13
47.5
 23
-109.5837153422272
 33
0
  0
SOLID
  5
87
100
AcDbEntity
  8
punch
  6
ByBlock
 62
    0
370
   -2
100
AcDbTrace
 10
35
 20
-110
 30
0
 11
37.5
 21
-109.5837153422272
 31
0
 12
37.5
 22
-110.4162846577728
 32
0
 13
37.5
 23
-110.4162846577728
 33
0
  0
MTEXT
  5
88
100
AcDbEntity
  8
punch
  6
CONTINUOUS
 62
    0
370
   -2
100
AcDbMText
 10
42.5
 20
-107.1875
 30
0
 40
2.5
 41
2.500000000000155
 71
    5
 72
    1
  1
15
  7
standard
210
0
220
0
230
1
 50
360
 73
    2
 44
1
  0
LINE
  5
89
100
AcDbEntity
  8
punch
  6
ByBlock
 62
    0
370
   -2
100
AcDbLine
 10
50
 20
-90.96250000000001
 11
50
 21
-113.125
  0
LINE
  5
8A
100
AcDbEntity
  8
punch
  6
ByBlock
 62
    0
370
   -2
100
AcDbLine
 10
35
 20
-90.96249999999999
 11
35
 21
-113.125
  0
ENDBLK
  5
57
330
55
100
AcDbEntity
  8
0
100
AcDbBlockEnd
  0
BLOCK
  5
59
330
58
100
AcDbEntity
  8
0
100
AcDbBlockBegin
  2
*D5
 70
    1
 10
0
 20
0
  3
*D5
  1

  0
LINE
  5
8B
100
AcDbEntity
  8
punch
  6
ByBlock
 62
    0
370
   -2
100
AcDbLine
 10
50
 20
-140
 11
-50
 21
-140
  0
SOLID
  5
8C
100
AcDbEntity
  8
punch
  6
ByBlock
 62
    0
370
   -2
100
AcDbTrace
 10
50
 20
-140
 30
0
 11
47.5
 21
-140.4162846577728
 31
0
 12
47.5
 22
-139.5837153422272
 32
0
 13
47.5
 23
-139.5837153422272
 33
0
  0
SOLID
  5
8D
100
AcDbEntity
  8
punch
  6
ByBlock
 62
    0
370
   -2
100
AcDbTrace
 10
-50
 20
-140
 30
0
 11
-47.5
 21
-139.5837153422272
 31
0
 12
-47.5
 22
-140.4162846577728
 32
0
 13
-47.5
 23
-140.4162846577728
 33
0
  0
MTEXT
  5
8E
100
AcDbEntity
  8
punch
  6
CONTINUOUS
 62
    0
370
   -2
100
AcDbMText
 10
1.722159561300965e-16
 20
-137.1875
 30
0
 40
2.5
 41
4.444444444444445
 71
    5
 72
    1
  1
100
  7
standard
210
0
220
0
230
1
 50
360
 73
    2
 44
1
  0
LINE
  5
8F
100
AcDbEntity
  8
punch
  6
ByBlock
 62
    0
370
   -2
100
AcDbLine
 10
50
 20
-92.5625
 11
50
 21
-143.125
  0
LINE
  5
90
100
AcDbEntity
  8
punch
  6
ByBlock
 62
    0
370
   -2
100
AcDbLine
 10
-50
 20
-92.5625
 11
-50
 21
-143.125
  0
ENDBLK
  5
5A
330
58
100
AcDbEntity
  8
0
100
AcDbBlockEnd
  0
BLOCK
  5
5C
330
5B
100
AcDbEntity
  8
0
100
AcDbBlockBegin
  2
*D2
 70
    1
 10
0
 20
0
  3
*D2
  1

  0
LINE
  5
91
100
AcDbEntity
  8
punch
  6
ByBlock
 62
    0
370
   -2
100
AcDbLine
 10
50
 20
-115
 11
15
 21
-115
  0
SOLID
  5
92
100
AcDbEntity
  8
punch
  6
ByBlock
 62
    0
370
   -2
100
AcDbTrace
 10
50
 20
-115
 30
0
 11
47.5
 21
-115.4162846577728
 31
0
 12
47.5
 22
-114.5837153422272
 32
0
 13
47.5
 23
-114.5837153422272
 33
0
  0
SOLID
  5
93
100
AcDbEntity
  8
punch
  6
ByBlock
 62
    0
370
   -2
100
AcDbTrace
 10
15
 20
-115
 30
0
 11
17.5
 21
-114.5837153422272
 31
0
 12
17.5
 22
-115.4162846577728
 32
0
 13
17.5
 23
-115.4162846577728
 33
0
  0
MTEXT
  5
94
100
AcDbEntity
  8
punch
  6
CONTINUOUS
 62
    0
370
   -2
100
AcDbMText
 10
32.5
 20
-112.1875
 30
0
 40
2.5
 41
3.055555555555866
 71
    5
 72
    1
  1
35
  7
standard
210
0
220
0
230
1
 50
360
 73
    2
 44
1
  0
LINE
  5
95
100
AcDbEntity
  8
punch
  6
ByBlock
 62
    0
370
   -2
100
AcDbLine
 10
50
 20
-92.5625
 11
50
 21
-118.125
  0
LINE
  5
96
100
AcDbEntity
  8
punch
  6
ByBlock
 62
    0
370
   -2
100
AcDbLine
 10
15
 20
-92.5625
 11
15
 21
-118.125
  0
ENDBLK
  5
5D
330
5B
100
AcDbEntity
  8
0
100
AcDbBlockEnd
  0
BLOCK
  5
5F
330
5E
100
AcDbEntity
  8
0
100
AcDbBlockBegin
  2
*D4
 70
    1
 10
0
 20
0
  3
*D4
  1

  0
LINE
  5
97
100
AcDbEntity
  8
punch
  6
ByBlock
 62
    0
370
   -2
100
AcDbLine
 10
50
 20
-125
 11
-23
 21
-125
  0
SOLID
  5
98
100
AcDbEntity
  8
punch
  6
ByBlock
 62
    0
370
   -2
100
AcDbTrace
 10
50
 20
-125
 30
0
 11
47.5
 21
-125.4162846577728
 31
0
 12
47.5
 22
-124.5837153422272
 32
0
 13
47.5
 23
-124.5837153422272
 33
0
  0
SOLID
  5
99
100
AcDbEntity
  8
punch
  6
ByBlock
 62
    0
370
   -2
100
AcDbTrace
 10
-23
 20
-125
 30
0
 11
-20.5
 21
-124.5837153422272
 31
0
 12
-20.5
 22
-125.4162846577728
 32
0
 13
-20.5
 23
-125.4162846577728
 33
0
  0
MTEXT
  5
9A
100
AcDbEntity
  8
punch
  6
CONTINUOUS
 62
    0
370
   -2
100
AcDbMText
 10
13.5
 20
-122.1875
 30
0
 40
2.5
 41
3.055555555555711
 71
    5
 72
    1
  1
73
  7
standard
210
0
220
0
230
1
 50
360
 73
    2
 44
1
  0
LINE
  5
9B
100
AcDbEntity
  8
punch
  6
ByBlock
 62
    0
370
   -2
100
AcDbLine
 10
50
 20
-92.5625
 11
50
 21
-128.125
  0
LINE
  5
9C
100
AcDbEntity
  8
punch
  6
ByBlock
 62
    0
370
   -2
100
AcDbLine
 10
-23
 20
-92.5625
 11
-23
 21
-128.125
  0
ENDBLK
  5
60
330
5E
100
AcDbEntity
  8
0
100
AcDbBlockEnd
  0
BLOCK
  5
62
330
61
100
AcDbEntity
  8
0
100
AcDbBlockBegin
  2
*D6
 70
    1
 10
0
 20
0
  3
*D6
  1

  0
LINE
  5
9D
100
AcDbEntity
  8
punch
  6
ByBlock
 62
    0
370
   -2
100
AcDbLine
 10
50
 20
-130
 11
-40
 21
-130
  0
SOLID
  5
9E
100
AcDbEntity
  8
punch
  6
ByBlock
 62
    0
370
   -2
100
AcDbTrace
 10
50
 20
-130
 30
0
 11
47.5
 21
-130.4162846577728
 31
0
 12
47.5
 22
-129.5837153422272
 32
0
 13
47.5
 23
-129.5837153422272
 33
0
  0
SOLID
  5
9F
100
AcDbEntity
  8
punch
  6
ByBlock
 62
    0
370
   -2
100
AcDbTrace
 10
-40
 20
-130
 30
0
 11
-37.5
 21
-129.5837153422272
 31
0
 12
-37.5
 22
-130.4162846577728
 32
0
 13
-37.5
 23
-130.4162846577728
 33
0
  0
MTEXT
  5
A0
100
AcDbEntity
  8
punch
  6
CONTINUOUS
 62
    0
370
   -2
100
AcDbMText
 10
5
 20
-127.1875
 30
0
 40
2.5
 41
3.055555555555711
 71
    5
 72
    1
  1
90
  7
standard
210
0
220
0
230
1
 50
360
 73
    2
 44
1
  0
LINE
  5
A1
100
AcDbEntity
  8
punch
  6
ByBlock
 62
    0
370
   -2
100
AcDbLine
 10
50
 20
-92.5625
 11
50
 21
-133.125
  0
LINE
  5
A2
100
AcDbEntity
  8
punch
  6
ByBlock
 62
    0
370
   -2
100
AcDbLine
 10
-40
 20
-92.5625
 11
-40
 21
-133.125
  0
ENDBLK
  5
63
330
61
100
AcDbEntity
  8
0
100
AcDbBlockEnd
  0
BLOCK
  5
65
330
64
100
AcDbEntity
  8
0
100
AcDbBlockBegin
  2
Fischer KO H 2
 70
    0
 10
0
 20
0
  3
Fischer KO H 2
  1

  0
LINE
  5
A3
100
AcDbEntity
  8
0
  6
ByLayer
 62
  256
370
   -1
100
AcDbLine
 10
13.49999999999997
 20
4.300000000000011
 11
9.999999999999943
 21
4.30000000000002
  0
ARC
  5
A4
100
AcDbEntity
  8
0
  6
ByLayer
 62
  256
370
   -1
100
AcDbCircle
 10
9.999999999999943
 20
5.300000000000015
 40
0.9999999999999964
100
AcDbArc
 50
180.0000000000003
 51
270
  0
LINE
  5
A5
100
AcDbEntity
  8
0
  6
ByLayer
 62
  256
370
   -1
100
AcDbLine
 10
8.999999999999943
 20
5.300000000000012
 11
9
 21
6
  0
LWPOLYLINE
  5
A6
100
AcDbEntity
  8
0
  6
ByLayer
 62
  256
370
   -1
100
AcDbPolyline
 90
  134
 70
    1
 43
0
 10
4.499999999999972
 20
10.96
 10
4.499999999999995
 20
6.08868992310576
 42
0.1316524975873993
 10
4.566987298107762
 20
5.838689923105753
 10
5.159807621135482
 20
4.811895003862383
 42
-0.3470995700010631
 10
5.106250000000122
 20
4.444039690638192
 42
0.08847575912438564
 10
4.834999999999967
 20
4.076866535690902
 42
0.7540739028638581
 10
4.834999999999978
 20
2.923133464309125
 42
0.164267298592887
 10
5.423133464309101
 20
2.335000000000016
 42
0.754073902863869
 10
6.576866535690817
 20
2.334999999999999
 42
0.1642672985928937
 10
7.164999999999954
 20
2.923133464309092
 42
0.754073902863899
 10
7.164999999999988
 20
4.076866535690878
 42
0.08847575912429904
 10
6.893750000000139
 20
4.444039690637906
 42
-0.34709957000097
 10
6.840192378864856
 20
4.811895003862028
 10
7.381807550913252
 20
5.750000000000007
 42
-0.2679491924311266
 10
7.814820252805475
 20
6.000000000000014
 10
9
 20
6
 10
9.000000000000004
 20
5.300000000000012
 42
0.4142135623730955
 10
9.999999999999972
 20
4.30000000000001
 10
13.5
 20
4.300000000000011
 10
13.5
 20
2.349999999999992
 10
15.30000000000001
 20
2.349999999999992
 10
15.30000000000001
 20
4.300000000000011
 10
18.58000000000004
 20
4.300000000000011
 10
18.58000000000004
 20
2.349999999999992
 10
20.38000000000005
 20
2.349999999999992
 10
20.38000000000005
 20
4.300000000000011
 10
23.66000000000003
 20
4.300000000000011
 10
23.66000000000003
 20
2.349999999999992
 10
25.46000000000006
 20
2.349999999999992
 10
25.46000000000006
 20
4.300000000000011
 10
28.74000000000001
 20
4.300000000000011
 10
28.74000000000001
 20
2.349999999999992
 10
30.54000000000005
 20
2.349999999999992
 10
30.54000000000005
 20
4.300000000000011
 10
33.82000000000005
 20
4.300000000000011
 10
33.82000000000005
 20
2.349999999999992
 10
35.62000000000006
 20
2.349999999999992
 10
35.62000000000006
 20
4.300000000000011
 10
38.90000000000001
 20
4.300000000000011
 10
38.90000000000001
 20
2.349999999999992
 10
40.70000000000002
 20
2.349999999999992
 10
40.70000000000002
 20
4.300000000000011
 10
43.98000000000002
 20
4.300000000000011
 10
43.98000000000002
 20
2.349999999999992
 10
45.78000000000003
 20
2.349999999999992
 10
45.78000000000003
 20
4.300000000000011
 10
49.06
 20
4.300000000000011
 10
49.06
 20
2.349999999999992
 10
50.86000000000001
 20
2.349999999999992
 10
50.86000000000001
 20
4.300000000000011
 10
54.13999999999999
 20
4.300000000000011
 10
54.13999999999993
 20
2.349999999999992
 10
55.94
 20
2.349999999999992
 10
55.94
 20
4.300000000000011
 10
59.21999999999997
 20
4.300000000000011
 10
59.21999999999997
 20
2.349999999999992
 10
61.01999999999995
 20
2.349999999999992
 10
61.01999999999995
 20
4.300000000000011
 10
64.29999999999995
 20
4.300000000000011
 10
64.29999999999995
 20
2.349999999999992
 10
66.09999999999997
 20
2.349999999999992
 10
66.09999999999997
 20
4.300000000000011
 10
69.37999999999997
 20
4.300000000000011
 10
69.37999999999994
 20
2.349999999999992
 10
71.17999999999995
 20
2.349999999999992
 10
71.17999999999995
 20
4.300000000000011
 10
74.45999999999992
 20
4.300000000000011
 10
74.45999999999992
 20
2.349999999999992
 10
76.25999999999999
 20
2.349999999999992
 10
76.25999999999999
 20
4.300000000000011
 10
79.53999999999996
 20
4.300000000000011
 10
79.53999999999996
 20
2.349999999999992
 10
81.33999999999992
 20
2.349999999999992
 10
81.33999999999992
 20
4.300000000000011
 10
84.61999999999995
 20
4.300000000000011
 10
84.61999999999995
 20
2.349999999999992
 10
86.41999999999996
 20
2.349999999999992
 10
86.41999999999996
 20
4.300000000000011
 10
89.69999999999999
 20
4.300000000000011
 10
89.69999999999999
 20
2.349999999999992
 10
91.5
 20
2.349999999999992
 10
91.5
 20
4.300000000000011
 10
95.00000000000006
 20
4.30000000000002
 42
0.4142135623730927
 10
96.00000000000006
 20
5.300000000000012
 10
96
 20
6
 10
97.18517974719447
 20
6.000000000000016
 42
-0.2679491924311239
 10
97.61819244908673
 20
5.750000000000004
 10
98.15980762113513
 20
4.811895003862035
 42
-0.3470995700009875
 10
98.10624999999986
 20
4.444039690637887
 42
0.08847575912429916
 10
97.83499999999999
 20
4.076866535690882
 42
0.7540739028639567
 10
97.83500000000004
 20
2.923133464309089
 42
0.1642672985928911
 10
98.42313346430916
 20
2.335000000000004
 42
0.7540739028638682
 10
99.57686653569091
 20
2.335000000000029
 42
0.164267298592885
 10
100.165
 20
2.923133464309127
 42
0.7540739028638557
 10
100.165
 20
4.076866535690898
 42
0.08847575912438531
 10
99.89374999999988
 20
4.444039690638196
 42
-0.3470995700010478
 10
99.84019237886453
 20
4.811895003862376
 10
100.4330127018922
 20
5.838689923105733
 42
0.1316524975874115
 10
100.5
 20
6.08868992310576
 10
100.5
 20
10.96
 10
102.65
 20
10.96
 10
102.65
 20
12.75999999999999
 10
100.5
 20
12.75999999999999
 10
100.5
 20
16.04000000000002
 10
102.65
 20
16.04000000000002
 10
102.65
 20
17.84000000000002
 10
100.5
 20
17.84000000000002
 10
100.5
 20
22.07000000000002
 10
101.8
 20
22.07000000000002
 10
101.8
 20
23.27000000000004
 42
-0.414213562373102
 10
102.4
 20
23.87
 10
102.6
 20
23.87000000000004
 42
-0.4142135623731036
 10
103.2
 20
23.27000000000004
 10
103.2
 20
22.07000000000002
 10
105
 20
22.07000000000002
 10
105
 20
2.499999999999996
 42
-0.4142135623730914
 10
102.5
 20
1.332267629550188e-15
 10
2.499999999999985
 20
3.019806626980426e-14
 42
-0.4142135623730932
 10
0
 20
2.500000000000032
 10
0
 20
21.97
 10
1.75
 20
21.97
 10
1.750000000000011
 20
20.07000000000003
 42
0.4142135623730957
 10
2.349999999999993
 20
19.47
 10
2.650000000000007
 20
19.47000000000002
 42
0.4142135623730945
 10
3.25
 20
20.07000000000003
 10
3.25
 20
21.97
 10
4.499999999999972
 20
21.97
 10
4.5
 20
17.84000000000002
 10
2.349999999999994
 20
17.84000000000002
 10
2.349999999999994
 20
16.04000000000002
 10
4.5
 20
16.04000000000002
 10
4.5
 20
12.75999999999999
 10
2.349999999999994
 20
12.75999999999999
 10
2.349999999999994
 20
10.96
  0
ENDBLK
  5
66
330
64
100
AcDbEntity
  8
0
100
AcDbBlockEnd
  0
BLOCK
  5
68
330
67
100
AcDbEntity
  8
0
100
AcDbBlockBegin
  2
KO H 2 + KO H 2 front
 70
    0
 10
0
 20
0
  3
KO H 2 + KO H 2 front
  1

  0
INSERT
  5
A7
100
AcDbEntity
  8
0
  6
ByLayer
 62
  256
370
   50
100
AcDbBlockReference
  2
Fischer KO H 2
 10
0
 20
0
 30
0
 41
1
 42
1
 43
0
 50
0
 70
    1
 71
    1
 44
0
 45
0
  0
ENDBLK
  5
69
330
67
100
AcDbEntity
  8
0
100
AcDbBlockEnd
  0
BLOCK
  5
6B
330
6A
100
AcDbEntity
  8
0
100
AcDbBlockBegin
  2
RAFI 106 front
 70
    0
 10
0
 20
0
  3
RAFI 106 front
  1

  0
CIRCLE
  5
A8
100
AcDbEntity
  8
0
  6
ByLayer
 62
  256
370
   -1
100
AcDbCircle
 10
0
 20
0
 40
4.55
  0
LINE
  5
A9
100
AcDbEntity
  8
punch
  6
ByLayer
 62
  256
370
   -1
100
AcDbLine
 10
-3
 20
0
 11
3
 21
0
  0
LINE
  5
AA
100
AcDbEntity
  8
punch
  6
ByLayer
 62
  256
370
   -1
100
AcDbLine
 10
0
 20
3
 11
0
 21
-3
  0
DIMENSION
  5
AB
100
AcDbEntity
  8
punch
  6
ByLayer
 62
  256
370
   -1
100
AcDbDimension
 10
-4.55
 20
5.572142936120457e-16
 30
0
 11
1.722159561300965e-16
 21
2.8125
 31
0
 70
   35
 71
    5
  3
Standard
 53
0
210
0
220
0
230
1
100
AcDbDiametricDimension
 15
4.55
 25
0
 35
0
 40
0
  0
CIRCLE
  5
AC
100
AcDbEntity
  8
outside
  6
ByLayer
 62
  256
370
   -1
100
AcDbCircle
 10
0
 20
0
 40
5.5
  0
CIRCLE
  5
AD
100
AcDbEntity
  8
inside
  6
ByLayer
 62
  256
370
   -1
100
AcDbCircle
 10
0
 20
0
 40
5.75
  0
ENDBLK
  5
6C
330
6A
100
AcDbEntity
  8
0
100
AcDbBlockEnd
  0
BLOCK
  5
6E
330
6D
100
AcDbEntity
  8
0
100
AcDbBlockBegin
  2
Neutrik NRJ6HF front
 70
    0
 10
0
 20
0
  3
Neutrik NRJ6HF front
  1

  0
CIRCLE
  5
AE
100
AcDbEntity
  8
0
  6
ByLayer
 62
  256
370
   -1
100
AcDbCircle
 10
0
 20
6.5
 40
5.6
  0
LWPOLYLINE
  5
AF
100
AcDbEntity
  8
inside
  6
ByLayer
 62
  256
370
   -1
100
AcDbPolyline
 90
    4
 70
    1
 43
0
 10
-6.43
 20
0
 10
9.32
 20
0
 10
9.32
 20
12.7
 10
-6.43
 20
12.7
  0
LINE
  5
B0
100
AcDbEntity
  8
punch
  6
ByLayer
 62
  256
370
   -1
100
AcDbLine
 10
0
 20
9
 11
0
 21
4
  0
LINE
  5
B1
100
AcDbEntity
  8
punch
  6
ByLayer
 62
  256
370
   -1
100
AcDbLine
 10
2.5
 20
6.5
 11
-2.5
 21
6.5
  0
DIMENSION
  5
B2
100
AcDbEntity
  8
punch
  6
ByLayer
 62
  256
370
   -1
100
AcDbDimension
 10
-5.6
 20
6.500000000000001
 30
0
 11
1.722159561300965e-16
 21
9.3125
 31
0
 70
   35
 71
    5
  3
Standard
 53
0
210
0
220
0
230
1
100
AcDbDiametricDimension
 15
5.6
 25
6.5
 35
0
 40
0
  0
CIRCLE
  5
B3
100
AcDbEntity
  8
outside
  6
ByLayer
 62
  256
370
   -1
100
AcDbCircle
 10
0
 20
6.5
 40
8.725
  0
LWPOLYLINE
  5
B4
100
AcDbEntity
  8
outside
  6
ByLayer
 62
  256
370
   -1
100
AcDbPolyline
 90
    8
 70
    1
 43
0
 10
2.662534313302971
 20
14.74080766857741
 10
-5.805481632038164
 20
12.92622618805683
 10
-8.468015945341136
 20
4.685418519479423
 10
-2.662534313302974
 20
-1.74080766857741
 10
5.805481632038162
 20
0.07377381194316168
 10
8.468015945341136
 20
8.314581480520578
 10
8.468015945341136
 20
8.314581480520578
 10
8.468015945341136
 20
8.314581480520578
  0
ENDBLK
  5
6F
330
6D
100
AcDbEntity
  8
0
100
AcDbBlockEnd
  0
BLOCK
  5
71
330
70
100
AcDbEntity
  8
0
100
AcDbBlockBegin
  2
HEBL 21 front
 70
    0
 10
0
 20
0
  3
HEBL 21 front
  1

  0
CIRCLE
  5
B5
100
AcDbEntity
  8
inside
  6
ByLayer
 62
  256
370
   -1
100
AcDbCircle
 10
0
 20
0
 40
5.25
  0
CIRCLE
  5
B6
100
AcDbEntity
  8
0
  6
ByLayer
 62
  256
370
   -1
100
AcDbCircle
 10
0
 20
0
 40
3.9
  0
LINE
  5
B7
100
AcDbEntity
  8
punch
  6
ByLayer
 62
  256
370
   -1
100
AcDbLine
 10
0
 20
3
 11
0
 21
-3
  0
LINE
  5
B8
100
AcDbEntity
  8
punch
  6
ByLayer
 62
  256
370
   -1
100
AcDbLine
 10
-3
 20
0
 11
3
 21
0
  0
MTEXT
  5
B9
100
AcDbEntity
  8
punch
  6
ByLayer
 62
  256
370
   -1
100
AcDbMText
 10
-2
 20
-1
 30
0
 40
1
 41
2.666666666666667
 71
    5
 72
    1
  1
Ø7.8
  7
opengosttypea-regular
210
0
220
0
230
1
 50
0
 73
    2
 44
1
  0
LWPOLYLINE
  5
BA
100
AcDbEntity
  8
outside
  6
ByLayer
 62
  256
370
   -1
100
AcDbPolyline
 90
    6
 70
    1
 43
0
 10
2.840938829752841
 20
5.026171495177606
 10
-2.9323227837246
 20
4.973410944752398
 10
-5.773261613477442
 20
-0.05276055042520823
 10
-2.840938829752842
 20
-5.026171495177604
 10
2.932322783724598
 20
-4.973410944752399
 10
5.773261613477442
 20
0.05276055042520893
  0
CIRCLE
  5
BB
100
AcDbEntity
  8
outside
  6
ByLayer
 62
  256
370
   -1
100
AcDbCircle
 10
0
 20
0
 40
5.773502691896257
  0
CIRCLE
  5
BC
100
AcDbEntity
  8
inside
  6
ByLayer
 62
  256
370
   -1
100
AcDbCircle
 10
0
 20
0
 40
4.25
  0
ENDBLK
  5
72
330
70
100
AcDbEntity
  8
0
100
AcDbBlockEnd
  0
BLOCK
  5
74
330
73
100
AcDbEntity
  8
0
100
AcDbBlockBegin
  2
cross
 70
    0
 10
0
 20
0
  3
cross
  1

  0
LINE
  5
BD
100
AcDbEntity
  8
help
  6
ByLayer
 62
  256
370
   -1
100
AcDbLine
 10
-3
 20
0
 11
3
 21
0
  0
LINE
  5
BE
100
AcDbEntity
  8
help
  6
ByLayer
 62
  256
370
   -1
100
AcDbLine
 10
0
 20
3
 11
0
 21
-3
  0
ENDBLK
  5
75
330
73
100
AcDbEntity
  8
0
100
AcDbBlockEnd
  0
BLOCK
  5
77
330
76
100
AcDbEntity
  8
0
100
AcDbBlockBegin
  2
MEBP 8-8G front
 70
    0
 10
0
 20
0
  3
MEBP 8-8G front
  1

  0
LWPOLYLINE
  5
BF
100
AcDbEntity
  8
0
  6
ByLayer
 62
  256
370
   -1
100
AcDbPolyline
 90
    4
 70
    1
 43
0
 10
-7.94
 20
0
 10
7.94
 20
0
 10
7.94
 20
13.5
 10
-7.94
 20
13.5
  0
CIRCLE
  5
C0
100
AcDbEntity
  8
punch
  6
ByLayer
 62
  256
370
   -1
100
AcDbCircle
 10
-4.940000000000001
 20
10.5
 40
3
  0
CIRCLE
  5
C1
100
AcDbEntity
  8
punch
  6
ByLayer
 62
  256
370
   -1
100
AcDbCircle
 10
4.940000000000001
 20
10.5
 40
3
  0
CIRCLE
  5
C2
100
AcDbEntity
  8
punch
  6
ByLayer
 62
  256
370
   -1
100
AcDbCircle
 10
-4.940000000000001
 20
3
 40
3
  0
CIRCLE
  5
C3
100
AcDbEntity
  8
punch
  6
ByLayer
 62
  256
370
   -1
100
AcDbCircle
 10
4.940000000000001
 20
3
 40
3
  0
LINE
  5
C4
100
AcDbEntity
  8
punch
  6
ByLayer
 62
  256
370
   -1
100
AcDbLine
 10
-7.940000000000001
 20
10.5
 11
-1.940000000000001
 21
10.5
  0
LINE
  5
C5
100
AcDbEntity
  8
punch
  6
ByLayer
 62
  256
370
   -1
100
AcDbLine
 10
-4.940000000000001
 20
13.5
 11
-4.940000000000001
 21
7.5
  0
LINE
  5
C6
100
AcDbEntity
  8
punch
  6
ByLayer
 62
  256
370
   -1
100
AcDbLine
 10
-7.940000000000001
 20
3
 11
-1.940000000000001
 21
3
  0
LINE
  5
C7
100
AcDbEntity
  8
punch
  6
ByLayer
 62
  256
370
   -1
100
AcDbLine
 10
-4.940000000000001
 20
6
 11
-4.940000000000001
 21
0
  0
LINE
  5
C8
100
AcDbEntity
  8
punch
  6
ByLayer
 62
  256
370
   -1
100
AcDbLine
 10
1.940000000000001
 20
10.5
 11
7.940000000000001
 21
10.5
  0
LINE
  5
C9
100
AcDbEntity
  8
punch
  6
ByLayer
 62
  256
370
   -1
100
AcDbLine
 10
4.940000000000001
 20
13.5
 11
4.940000000000001
 21
7.5
  0
LINE
  5
CA
100
AcDbEntity
  8
punch
  6
ByLayer
 62
  256
370
   -1
100
AcDbLine
 10
1.940000000000001
 20
3
 11
7.940000000000001
 21
3
  0
LINE
  5
CB
100
AcDbEntity
  8
punch
  6
ByLayer
 62
  256
370
   -1
100
AcDbLine
 10
4.940000000000001
 20
6
 11
4.940000000000001
 21
0
  0
MTEXT
  5
CC
100
AcDbEntity
  8
punch
  6
ByLayer
 62
  256
370
   -1
100
AcDbMText
 10
-6
 20
9
 30
0
 40
1
 41
1.555555555555618
 71
    5
 72
    1
  1
Ø6
  7
opengosttypea-regular
210
0
220
0
230
1
 50
0
 73
    2
 44
1
  0
ENDBLK
  5
78
330
76
100
AcDbEntity
  8
0
100
AcDbBlockEnd
  0
BLOCK
  5
7A
330
79
100
AcDbEntity
  8
0
100
AcDbBlockBegin
  2
case front
 70
    0
 10
0
 20
0
  3
case front
  1

  0
INSERT
  5
CD
100
AcDbEntity
  8
inside
  6
ByLayer
 62
  256
370
   -1
100
AcDbBlockReference
  2
Fischer KO H 2
 10
-52.5
 20
-22
 30
0
 41
1
 42
1
 43
0
 50
0
 70
    1
 71
    1
 44
1
 45
1
  0
INSERT
  5
CE
100
AcDbEntity
  8
inside
  6
ByLayer
 62
  256
370
   -1
100
AcDbBlockReference
  2
Fischer KO H 2
 10
52.5
 20
22
 30
0
 41
1
 42
1
 43
0
 50
180
 70
    1
 71
    1
 44
1
 45
1
  0
LWPOLYLINE
  5
CF
100
AcDbEntity
  8
0
  6
ByLayer
 62
  256
370
   -1
100
AcDbPolyline
 90
    8
 70
    1
 43
0
 10
-50.5
 20
-22
 10
50.5
 20
-22
 42
0.414213562373095
 10
52.5
 20
-20
 10
52.5
 20
20
 42
0.414213562373095
 10
50.5
 20
22
 10
-50.5
 20
22
 42
0.414213562373095
 10
-52.5
 20
20
 10
-52.5
 20
-20
 42
0.414213562373095
  0
CIRCLE
  5
D0
100
AcDbEntity
  8
0
  6
ByLayer
 62
  256
370
   -1
100
AcDbCircle
 10
-46.5
 20
-18.5
 40
1.7
  0
CIRCLE
  5
D1
100
AcDbEntity
  8
0
  6
ByLayer
 62
  256
370
   -1
100
AcDbCircle
 10
46.5
 20
-18.5
 40
1.7
  0
CIRCLE
  5
D2
100
AcDbEntity
  8
0
  6
ByLayer
 62
  256
370
   -1
100
AcDbCircle
 10
46.5
 20
18.5
 40
1.7
  0
CIRCLE
  5
D3
100
AcDbEntity
  8
0
  6
ByLayer
 62
  256
370
   -1
100
AcDbCircle
 10
-46.5
 20
18.5
 40
1.7
  0
INSERT
  5
D4
100
AcDbEntity
  8
inside
  6
ByLayer
 62
  256
370
   -1
100
AcDbBlockReference
  2
case_2_2
 10
-52.5
 20
-22
 30
0
 41
1
 42
1
 43
0
 50
0
 70
    1
 71
    1
 44
1
 45
1
  0
LINE
  5
D5
100
AcDbEntity
  8
help
  6
ByLayer
 62
  256
370
   -1
100
AcDbLine
 10
-62.5
 20
0
 11
62.5
 21
0
  0
LINE
  5
D6
100
AcDbEntity
  8
help
  6
ByLayer
 62
  256
370
   -1
100
AcDbLine
 10
0
 20
-32
 11
0
 21
32
  0
LWPOLYLINE
  5
D7
100
AcDbEntity
  8
inside
  6
ByLayer
 62
  256
370
   -1
100
AcDbPolyline
 90
    7
 70
    1
 43
0
 10
-50
 20
-11
 10
50
 20
-11
 10
50
 20
-9.4
 10
-50
 20
-9.4
 10
-50
 20
-9.4
 10
-50
 20
-9.4
 10
-50
 20
-9.4
  0
LINE
  5
D8
100
AcDbEntity
  8
help
  6
ByLayer
 62
  256
370
   -1
100
AcDbLine
 10
50
 20
32
 11
50
 21
-32
  0
LINE
  5
D9
100
AcDbEntity
  8
help
  6
ByLayer
 62
  256
370
   -1
100
AcDbLine
 10
-50
 20
32
 11
-50
 21
-32
  0
LINE
  5
DA
100
AcDbEntity
  8
help
  6
ByLayer
 62
  256
370
   -1
100
AcDbLine
 10
-62.5
 20
-9.4
 11
62.5
 21
-9.4
  0
ENDBLK
  5
7B
330
79
100
AcDbEntity
  8
0
100
AcDbBlockEnd
  0
BLOCK
  5
7D
330
7C
100
AcDbEntity
  8
0
100
AcDbBlockBegin
  2
Lumberg KFV front
 70
    0
 10
0
 20
0
  3
Lumberg KFV front
  1

  0
CIRCLE
  5
DB
100
AcDbEntity
  8
0
  6
ByLayer
 62
  256
370
   -1
100
AcDbCircle
 10
0
 20
0
 40
9
  0
LINE
  5
DC
100
AcDbEntity
  8
punch
  6
ByLayer
 62
  256
370
   -1
100
AcDbLine
 10
-3
 20
0
 11
3
 21
0
  0
LINE
  5
DD
100
AcDbEntity
  8
punch
  6
ByLayer
 62
  256
370
   -1
100
AcDbLine
 10
0
 20
3
 11
0
 21
-3
  0
DIMENSION
  5
DE
100
AcDbEntity
  8
punch
  6
ByLayer
 62
  256
370
   -1
100
AcDbDimension
 10
6.363961030678929
 20
6.363961030678926
 30
0
 11
-1.988737822087163
 21
1.988737822087166
 31
0
 70
   35
 71
    5
  3
Standard
 53
0
210
0
220
0
230
1
100
AcDbDiametricDimension
 15
-6.363961030678929
 25
-6.363961030678928
 35
0
 40
0
  0
CIRCLE
  5
DF
100
AcDbEntity
  8
outside
  6
ByLayer
 62
  256
370
   -1
100
AcDbCircle
 10
0
 20
0
 40
10
  0
CIRCLE
  5
E0
100
AcDbEntity
  8
outside
  6
ByLayer
 62
  256
370
   -1
100
AcDbCircle
 10
0
 20
0
 40
8
  0
CIRCLE
  5
E1
100
AcDbEntity
  8
outside
  6
ByLayer
 62
  256
370
   -1
100
AcDbCircle
 10
0
 20
0
 40
5.9
  0
CIRCLE
  5
E2
100
AcDbEntity
  8
inside
  6
ByLayer
 62
  256
370
   -1
100
AcDbCircle
 10
0
 20
0
 40
10
  0
ARC
  5
E3
100
AcDbEntity
  8
0
  6
ByLayer
 62
  256
370
   -1
100
AcDbCircle
 10
0
 20
0
 40
10
100
AcDbArc
 50
261.9509382983255
 51
278.0490617016745
  0
LINE
  5
E4
100
AcDbEntity
  8
0
  6
ByLayer
 62
  256
370
   -1
100
AcDbLine
 10
-1.40021004726182
 20
-9.901485334208553
 11
-1.40021004726182
 21
-8.888415287447014
  0
LINE
  5
E5
100
AcDbEntity
  8
0
  6
ByLayer
 62
  256
370
   -1
100
AcDbLine
 10
1.400210047261816
 20
-9.901485334208553
 11
1.400210047261816
 21
-8.890538269892929
  0
ENDBLK
  5
7E
330
7C
100
AcDbEntity
  8
0
100
AcDbBlockEnd
  0
ENDSEC
  0
SECTION
  2
ENTITIES
  0
INSERT
  5
E6
100
AcDbEntity
  8
0
  6
ByLayer
 62
  256
370
   -1
100
AcDbBlockReference
  2
case front
 10
0
 20
0
 30
0
 41
1
 42
1
 43
0
 50
0
 70
    1
 71
    1
 44
1
 45
1
  0
INSERT
  5
E7
100
AcDbEntity
  8
0
  6
ByLayer
 62
  256
370
   -1
100
AcDbBlockReference
  2
case front
 10
0
 20
-80
 30
0
 41
1
 42
1
 43
0
 50
0
 70
    1
 71
    1
 44
1
 45
1
  0
INSERT
  5
E8
100
AcDbEntity
  8
0
  6
ByLayer
 62
  256
370
   -1
100
AcDbBlockReference
  2
MEBP 8-8G front
 10
15
 20
-89.40000000000001
 30
0
 41
1
 42
1
 43
0
 50
0
 70
    1
 71
    1
 44
1
 45
1
  0
INSERT
  5
E9
100
AcDbEntity
  8
0
  6
ByLayer
 62
  256
370
   -1
100
AcDbBlockReference
  2
Neutrik NRJ6HF front
 10
-23
 20
-89.40000000000001
 30
0
 41
1
 42
1
 43
0
 50
0
 70
    1
 71
    1
 44
1
 45
1
  0
INSERT
  5
EA
100
AcDbEntity
  8
0
  6
ByLayer
 62
  256
370
   -1
100
AcDbBlockReference
  2
MEBP 8-8G front
 10
-3
 20
-89.40000000000001
 30
0
 41
1
 42
1
 43
0
 50
0
 70
    1
 71
    1
 44
0
 45
0
  0
INSERT
  5
EB
100
AcDbEntity
  8
0
  6
ByLayer
 62
  256
370
   -1
100
AcDbBlockReference
  2
RAFI 106 front
 10
32
 20
0
 30
0
 41
1
 42
1
 43
0
 50
0
 70
    1
 71
    1
 44
1
 45
1
  0
INSERT
  5
EC
100
AcDbEntity
  8
0
  6
ByLayer
 62
  256
370
   -1
100
AcDbBlockReference
  2
RAFI 106 front
 10
14
 20
0
 30
0
 41
1
 42
1
 43
0
 50
0
 70
    1
 71
    1
 44
1
 45
1
  0
INSERT
  5
ED
100
AcDbEntity
  8
0
  6
ByLayer
 62
  256
370
   -1
100
AcDbBlockReference
  2
Neutrik NRJ6HF front
 10
35
 20
-89.39999999999999
 30
0
 41
1
 42
1
 43
0
 50
0
 70
    1
 71
    1
 44
1
 45
1
  0
DIMENSION
  5
EE
100
AcDbEntity
  8
punch
  6
ByLayer
 62
  256
370
   -1
100
AcDbDimension
  2
*D1
 10
35
 20
-110
 30
0
 11
42.5
 21
-107.1875
 31
0
 70
   32
 71
    5
  3
Standard
 53
0
210
0
220
0
230
1
100
AcDbAlignedDimension
 13
50
 23
-89.40000000000001
 33
0
 14
35
 24
-89.39999999999999
 34
0
100
AcDbRotatedDimension
  0
DIMENSION
  5
EF
100
AcDbEntity
  8
punch
  6
ByLayer
 62
  256
370
   -1
100
AcDbDimension
  2
*D2
 10
15
 20
-115
 30
0
 11
32.5
 21
-112.1875
 31
0
 70
   32
 71
    5
  3
Standard
 53
0
210
0
220
0
230
1
100
AcDbAlignedDimension
 13
50
 23
-91
 33
0
 14
15
 24
-91
 34
0
100
AcDbRotatedDimension
  0
DIMENSION
  5
F0
100
AcDbEntity
  8
punch
  6
ByLayer
 62
  256
370
   -1
100
AcDbDimension
  2
*D3
 10
-3.000000000000002
 20
-120
 30
0
 11
23.5
 21
-117.1875
 31
0
 70
   32
 71
    5
  3
Standard
 53
0
210
0
220
0
230
1
100
AcDbAlignedDimension
 13
50
 23
-91
 33
0
 14
-3
 24
-91
 34
0
100
AcDbRotatedDimension
  0
DIMENSION
  5
F1
100
AcDbEntity
  8
punch
  6
ByLayer
 62
  256
370
   -1
100
AcDbDimension
  2
*D4
 10
-23
 20
-125
 30
0
 11
13.5
 21
-122.1875
 31
0
 70
   32
 71
    5
  3
Standard
 53
0
210
0
220
0
230
1
100
AcDbAlignedDimension
 13
50
 23
-91
 33
0
 14
-23
 24
-91
 34
0
100
AcDbRotatedDimension
  0
INSERT
  5
F2
100
AcDbEntity
  8
0
  6
ByLayer
 62
  256
370
   -1
100
AcDbBlockReference
  2
case front
 10
0
 20
-200
 30
0
 41
1
 42
1
 43
0
 50
0
 70
    1
 71
    1
 44
1
 45
1
  0
DIMENSION
  5
F3
100
AcDbEntity
  8
punch
  6
ByLayer
 62
  256
370
   -1
100
AcDbDimension
  2
*D5
 10
-50
 20
-140
 30
0
 11
1.722159561300965e-16
 21
-137.1875
 31
0
 70
   32
 71
    5
  3
Standard
 53
0
210
0
220
0
230
1
100
AcDbAlignedDimension
 13
50
 23
-91
 33
0
 14
-50
 24
-91
 34
0
100
AcDbRotatedDimension
  0
DIMENSION
  5
F4
100
AcDbEntity
  8
punch
  6
ByLayer
 62
  256
370
   -1
100
AcDbDimension
  2
*D6
 10
-40
 20
-130
 30
0
 11
5
 21
-127.1875
 31
0
 70
   32
 71
    5
  3
Standard
 53
0
210
0
220
0
230
1
100
AcDbAlignedDimension
 13
50
 23
-91
 33
0
 14
-40
 24
-91
 34
0
100
AcDbRotatedDimension
  0
INSERT
  5
F5
100
AcDbEntity
  8
0
  6
ByLayer
 62
  256
370
   -1
100
AcDbBlockReference
  2
Neutrik NRJ6HF front
 10
-23
 20
-209.4
 30
0
 41
1
 42
1
 43
0
 50
0
 70
    1
 71
    1
 44
1
 45
1
  0
INSERT
  5
F6
100
AcDbEntity
  8
0
  6
ByLayer
 62
  256
370
   -1
100
AcDbBlockReference
  2
Lumberg KFV front
 10
17
 20
-193
 30
0
 41
1
 42
1
 43
0
 50
0
 70
    1
 71
    1
 44
1
 45
1
  0
INSERT
  5
F7
100
AcDbEntity
  8
0
  6
ByLayer
 62
  256
370
   -1
100
AcDbBlockReference
  2
HEBL 21 front
 10
-40
 20
-193
 30
0
 41
1
 42
1
 43
0
 50
0
 70
    1
 71
    1
 44
1
 45
1
  0
INSERT
  5
F8
100
AcDbEntity
  8
0
  6
ByLayer
 62
  256
370
   -1
100
AcDbBlockReference
  2
Neutrik NRJ6HF front
 10
35
 20
-209.4
 30
0
 41
1
 42
1
 43
0
 50
0
 70
    1
 71
    1
 44
1
 45
1
  0
INSERT
  5
F9
100
AcDbEntity
  8
0
  6
ByLayer
 62
  256
370
   -1
100
AcDbBlockReference
  2
Lumberg KFV front
 10
-4
 20
-193
 30
0
 41
1
 42
1
 43
0
 50
0
 70
    1
 71
    1
 44
1
 45
1
  0
INSERT
  5
FA
100
AcDbEntity
  8
0
  6
ByLayer
 62
  256
370
   -1
100
AcDbBlockReference
  2
HEBL 21 front
 10
-40
 20
-82.90000000000001
 30
0
 41
1
 42
1
 43
0
 50
0
 70
    1
 71
    1
 44
1
 45
1
  0
INSERT
  5
FB
100
AcDbEntity
  8
0
  6
ByLayer
 62
  256
370
   -1
100
AcDbBlockReference
  2
HEBL 21 front
 10
-40
 20
-70
 30
0
 41
1
 42
1
 43
0
 50
0
 70
    1
 71
    1
 44
1
 45
1
  0
ENDSEC
  0
SECTION
  2
OBJECTS
  0
DICTIONARY
  5
C
330
0
100
AcDbDictionary
281
    1
  3
ACAD_GROUP
350
D
  0
DICTIONARY
  5
D
330
C
100
AcDbDictionary
281
    1
  0
ENDSEC
  0
EOF
